@startuml
title 基于GitHub的实验管理平台--类图
class users {
    <b>user_id</b> （用户ID）
    name （用户真实姓名）
    github_username （用户GitHub账号）
    update_date （用户GitHub账号修改日期）
    password （用户密码）
    disable （用户是否禁用）
}
class teachers{
    <b>teacher_id</b> （老师工号）
    department （老师所属部门）
}
class students{
    <b>student_id</b> （学号）
    class （班级）
    result_sum（成绩汇总）
    web_sum （网站正确与否汇总）
}
users <|- students
users <|-- teachers
class courses {
     <b>course_id</b> （课程号）
      course_name （课程名称）
      period （学时）
      credit_hour （学分）
}
class grades {
    <b>student_id</b> （学号）
    <b>test_id</b> （实验编号）
    scoring_items （评分项)
    scoring （评分标准）
    each_result （得分）
    sum_result （总分）
    memo （评价）
    update_date （评改日期）
}
class tests {
    <b>test_id</b> （实验编号）
    <b>course_id</b> （课程号）
    title (实验名称)
    GitHub （GitHub地址）
}
class classes {
     <b>class_id</b> （班级编号）
     class_name （班级名称）
}
class terms {
     <b>term_id</b> （学期编号）
      term_name （学期名称）
      }
 class teacher_select{
 <b>teacher_id</b> （教师编号）
 <b>course_id</b> （课程编号）
 }
 class student_select{
 <b>student_id</b> （学号）
 <b>course_id</b> （课程编号）
    teacher_id （教师编号）
 }
teacher_select "m" --"n" "teachers"
student_select "m" --"n" "students"
terms "1" -- "n" courses
terms "m" -- "n" students
terms "m" -- "n" teachers
classes "1" -- "n" students
teachers "m" --"n" courses
students "m" -- "n" courses
students "1" -- "n"  grades
tests "1" -- "n"  grades

@enduml